<svg xmlns="http://www.w3.org/2000/svg" viewBox="0 0 612 612"><path d="M230.7 181.2l-5 5.5 5-5.5zM337 201c8 9.7 12 21.2 12 34.5 0 9.5-3 18.7-8.3 27.5-3 5-7 10-11.8 14.5l-16.4 16c-15.6 15.4-25.7 29-30.3 41-4.6 11.8-7 27.5-7 47h36.3c0-17.2 2-30 5.8-39 4-8.7 12.4-19.3 25.4-32 18-17.4 30-30.6 35.7-39.5s9-20.7 9-35c0-23.8-8-43.4-24.2-58.7-16-15.3-37.5-23-64.3-23-29 0-51.7 9-68.3 27S206 222.6 206 252h36c.8-17.7 3.6-31.2 8.5-40.6 8.7-16.8 24.3-25.2 47-25.2 18.4 0 31.5 5 39.5 14.7z"/><path d="M612 306C612 137 475 0 306 0S0 137 0 306s137 306 306 306 306-137 306-306zm-584.2 0C27.8 152.4 152.4 27.8 306 27.8S584.2 152.4 584.2 306 459.6 584.2 306 584.2 27.8 459.6 27.8 306z"/><path d="M274.5 415.2H315v42.4h-40.5z"/></svg>